<svg xmlns="http://www.w3.org/2000/svg" viewBox="0 0 233.74 111.63"><defs><style>.cls-1{fill:#fff;stroke:#000;stroke-miterlimit:10;stroke-width:1.02px;}.cls-2{font-size:8.85px;font-family:MyriadPro-Regular, Myriad Pro;}.cls-3{letter-spacing:0.04em;}.cls-4{letter-spacing:0em;}.cls-5{letter-spacing:0em;}.cls-6{letter-spacing:0em;}.cls-7{letter-spacing:0.02em;}.cls-8{letter-spacing:-0.01em;}.cls-9{letter-spacing:0em;}.cls-10{letter-spacing:0em;}.cls-11{letter-spacing:0.02em;}.cls-12{letter-spacing:0.03em;}.cls-13{letter-spacing:-0.01em;}.cls-14{letter-spacing:0.01em;}.cls-15{letter-spacing:-0.01em;}.cls-16{letter-spacing:0.01em;}.cls-17{letter-spacing:0em;}.cls-18{letter-spacing:-0.01em;}.cls-19{letter-spacing:0.03em;}.cls-20{letter-spacing:-0.01em;}.cls-21{letter-spacing:0.01em;}.cls-22{letter-spacing:0em;}.cls-23{letter-spacing:0em;}.cls-24{letter-spacing:0.01em;}.cls-25{letter-spacing:0.02em;}.cls-26{letter-spacing:0.03em;}.cls-27{letter-spacing:0em;}.cls-28{letter-spacing:-0.01em;}.cls-29{letter-spacing:-0.11em;}.cls-30{letter-spacing:-0.08em;}</style></defs><title>Asset 26</title><g id="Layer_2" data-name="Layer 2"><g id="Layer_4" data-name="Layer 4"><rect class="cls-1" x="0.51" y="0.51" width="232.72" height="110.61"/><text class="cls-2" transform="translate(8.73 21.42)"><tspan class="cls-3">“</tspan><tspan class="cls-4" x="3.52" y="0">T</tspan><tspan class="cls-5" x="7.89" y="0">he mome</tspan><tspan x="43.41" y="0">n</tspan><tspan class="cls-6" x="48.32" y="0">t </tspan><tspan class="cls-7" x="53.19" y="0">M</tspan><tspan class="cls-5" x="60.45" y="0">ichael Jo</tspan><tspan class="cls-8" x="92.51" y="0">r</tspan><tspan class="cls-5" x="95.35" y="0">dan defied the game and s</tspan><tspan class="cls-9" x="194.18" y="0">t</tspan><tspan class="cls-6" x="197.09" y="0">epped </tspan><tspan class="cls-6"><tspan x="0" y="12">on the floor in the </tspan><tspan class="cls-10" x="68.58" y="12">A</tspan><tspan x="74" y="12">ir Jo</tspan><tspan class="cls-8" x="89.15" y="12">r</tspan><tspan class="cls-5" x="91.99" y="12">dan I, a lega</tspan><tspan class="cls-11" x="136.19" y="12">c</tspan><tspan class="cls-5" x="140.35" y="12">y of pe</tspan><tspan class="cls-12" x="165.42" y="12">r</tspan><tspan class="cls-13" x="168.62" y="12">f</tspan><tspan x="171.12" y="12">o</tspan><tspan class="cls-14" x="176.01" y="12">r</tspan><tspan class="cls-5" x="178.98" y="12">man</tspan><tspan class="cls-9" x="195.64" y="12">c</tspan><tspan class="cls-5" x="199.58" y="12">e </tspan></tspan><tspan class="cls-6" x="0" y="24">and sneaker cultu</tspan><tspan class="cls-15" x="65.84" y="24">r</tspan><tspan class="cls-6" x="68.68" y="24">e </tspan><tspan x="75.06" y="24">w</tspan><tspan class="cls-5" x="81.57" y="24">as bo</tspan><tspan class="cls-14" x="101.28" y="24">r</tspan><tspan class="cls-6" x="104.25" y="24">n. </tspan><tspan class="cls-16" x="112.97" y="24">D</tspan><tspan class="cls-5" x="118.93" y="24">espi</tspan><tspan class="cls-17" x="134.12" y="24">t</tspan><tspan class="cls-5" x="137.03" y="24">e league rule</tspan><tspan class="cls-18" x="185" y="24">s</tspan><tspan class="cls-5" x="188.44" y="24">, </tspan><tspan class="cls-5"><tspan x="0" y="36">nothing </tspan><tspan class="cls-15" x="31.69" y="36">w</tspan><tspan x="38.15" y="36">ould keep this shoe f</tspan><tspan class="cls-8" x="114.96" y="36">r</tspan><tspan x="117.8" y="36">om getting ai</tspan><tspan class="cls-19" x="167.75" y="36">r</tspan><tspan x="170.89" y="36">tim</tspan><tspan class="cls-20" x="183.38" y="36">e</tspan><tspan x="187.74" y="36">. </tspan></tspan><tspan class="cls-21" x="0" y="48">M</tspan><tspan class="cls-6" x="7.2" y="48">ome</tspan><tspan class="cls-22" x="23.98" y="48">n</tspan><tspan class="cls-6" x="28.89" y="48">ts of </tspan><tspan class="cls-17" x="46.73" y="48">g</tspan><tspan class="cls-15" x="51.65" y="48">r</tspan><tspan class="cls-6" x="54.5" y="48">e</tspan><tspan x="58.96" y="48">a</tspan><tspan class="cls-5" x="63.23" y="48">tness on the ha</tspan><tspan class="cls-8" x="119.88" y="48">r</tspan><tspan class="cls-5" x="122.72" y="48">d</tspan><tspan class="cls-15" x="127.75" y="48">w</tspan><tspan class="cls-6" x="134.21" y="48">ood led </tspan><tspan class="cls-9" x="164.46" y="48">t</tspan><tspan class="cls-6" x="167.37" y="48">o a new e</tspan><tspan class="cls-23" x="202.73" y="48">r</tspan><tspan class="cls-6" x="205.61" y="48">a </tspan><tspan class="cls-6"><tspan x="0" y="60">of s</tspan><tspan class="cls-24" x="12.96" y="60">t</tspan><tspan class="cls-5" x="16.01" y="60">yle off the </tspan><tspan class="cls-9" x="55" y="60">c</tspan><tspan x="58.95" y="60">ou</tspan><tspan class="cls-19" x="68.75" y="60">r</tspan><tspan x="71.89" y="60">t as this silhouet</tspan><tspan class="cls-9" x="131.93" y="60">t</tspan><tspan class="cls-5" x="134.84" y="60">e li</tspan><tspan class="cls-25" x="145.45" y="60">f</tspan><tspan class="cls-9" x="148.17" y="60">t</tspan><tspan x="151.08" y="60">ed e</tspan><tspan class="cls-15" x="166.95" y="60">v</tspan><tspan x="171.16" y="60">e</tspan><tspan class="cls-26" x="175.62" y="60">r</tspan><tspan x="178.77" y="60">ything it </tspan></tspan><tspan class="cls-9"><tspan x="0" y="72">t</tspan><tspan class="cls-6" x="2.91" y="72">ouched </tspan><tspan x="33.07" y="72">t</tspan><tspan class="cls-6" x="35.98" y="72">o new heig</tspan><tspan class="cls-27" x="77.15" y="72">h</tspan><tspan class="cls-6" x="82.07" y="72">t</tspan><tspan class="cls-28" x="85.03" y="72">s</tspan><tspan class="cls-29" x="88.47" y="72">.</tspan><tspan class="cls-30" x="89.34" y="72">”</tspan></tspan></text></g></g></svg>